<?xml version="1.0" encoding="utf-8"?>
<!-- Generator: Adobe Illustrator 19.1.0, SVG Export Plug-In . SVG Version: 6.00 Build 0)  -->
<svg version="1.1" id="Layer_1" xmlns="http://www.w3.org/2000/svg" xmlns:xlink="http://www.w3.org/1999/xlink" x="0px" y="0px"
	 viewBox="-376 438.1 330 45.9" style="enable-background:new -376 438.1 330 45.9;" xml:space="preserve">
<style type="text/css">
	.st0{fill:#002147;}
	.st1{fill:#C1C8D6;}
	.st2{fill:#2A2A2A;}
</style>
<g>
	<path class="st0" d="M-361.7,438.1c4.5,0,8.1,1.3,10.8,4.2c2.4,2.5,3.6,5.7,3.6,9.6c0,4.4-1.5,7.7-4.7,10.3
		c-2.7,2.2-5.9,3.2-9.6,3.2c-4.5,0-8.1-1.3-10.8-4.2c-2.4-2.5-3.6-5.7-3.6-9.6c0-4.4,1.5-7.7,4.7-10.3
		C-368.8,439.1-365.6,438.1-361.7,438.1z M-361.4,464.2c3.2,0,5.6-1.3,7.1-3.8c1.2-2,1.8-4.9,1.8-8.3c0-4.4-1.2-7.7-3.6-10.1
		c-1.8-1.7-3.8-2.5-6.1-2.5c-3.2,0-5.6,1.3-7.1,3.8c-1.2,2-1.8,4.9-1.8,8.3c0,4.4,1.2,7.7,3.6,10.1
		C-365.7,463.3-363.7,464.2-361.4,464.2z M-294.1,444.4h-0.9c-0.2-1.7-1-2.9-2.4-3.6c-1-0.5-2.7-0.7-4.7-0.7h-3.6v10.3h2.9
		c2,0,3.6,0,4.5-0.2v6.1h-0.9c0-1.7-0.3-2.7-0.9-3.2c-0.5-0.5-1.5-0.9-2.9-0.9c-1.4,0-2.2,0-2.9,0v6.9c0,2,0.3,3.4,1.2,3.8
		c0.5,0.3,1.8,0.7,3.7,0.7v0.9h-25.1l-6.9-11c-0.9,1-1.7,2.4-3,4c-1.3,1.8-1.8,3.2-1.8,4c0,1.2,1,1.7,2.9,2v0.9h-11.1v-0.9
		c2.2-0.2,4-0.7,5.2-1.8c0.7-0.5,1.7-1.8,3.2-3.8l3.8-5.6l-4.2-6.9c-2.2-3.7-4.9-5.6-7.9-5.7v-0.7h8.4l6.4,9.9
		c0.2-0.3,0.7-0.9,1.2-1.8c1.8-2.7,2.9-4.7,2.9-5.7s-0.9-1.5-2.7-1.7v-0.9h10.6v0.9c-2.2,0.2-3.8,0.9-5.2,1.8c-0.9,0.7-2,2-3,3.8
		l-2.9,4.4l5.4,8.4c2.2,3.4,4.5,5.2,7.1,5.2c2.7,0,4.7-0.3,5.7-0.9c1.5-0.9,2.4-2.2,2.4-4.2v-14c0-1.8-0.3-3.2-1-3.7
		c-0.7-0.5-1.7-0.9-3.6-0.9v-0.7h19.7L-294.1,444.4z M-277.3,438.1c4.5,0,8.1,1.3,10.8,4.2c2.4,2.5,3.6,5.7,3.6,9.6
		c0,4.4-1.5,7.7-4.7,10.3c-2.7,2.2-5.9,3.2-9.6,3.2c-4.5,0-8.1-1.3-10.8-4.2c-2.4-2.5-3.6-5.7-3.6-9.6c0-4.4,1.5-7.7,4.7-10.3
		C-284.2,439.1-281,438.1-277.3,438.1z M-277,464.2c3.2,0,5.6-1.3,7.2-3.8c1.2-2,1.8-4.9,1.8-8.3c0-4.4-1.2-7.7-3.6-10.1
		c-1.7-1.7-3.7-2.5-6.1-2.5c-3.2,0-5.6,1.3-7.1,3.8c-1.2,2-1.8,4.9-1.8,8.3c0,4.4,1.2,7.7,3.6,10.1
		C-281.3,463.3-279.3,464.2-277,464.2z M-256.8,464.4v-20.3c0-1.8-0.3-3-0.9-3.6c-0.3-0.3-1.2-0.7-2.4-0.7v-0.7
		c2.7,0,5.9-0.2,9.7-0.2c7.1,0,10.6,2,10.6,6.1c0,1.8-0.7,3.4-2.2,4.7c-1.2,1-2.5,1.7-4.2,2.2l0.7,0.9c1.5,1.8,3,3.6,4.4,4.9
		c4,4,6.9,6.1,8.7,6.1c1.8,0,3-0.3,3.7-1.2c0.7-0.7,1-1.8,1-3.4v-13.6c0-2.2-0.3-3.6-1-4.2c-0.7-0.7-1.8-1-3.7-1.3v-0.7l8.4-0.2h2.2
		c11.8,0,17.7,4.2,17.7,12.8c0,2.9-1,5.4-3,7.7c-1.7,1.8-3.8,3.4-6.4,4c-1.7,0.7-4.2,0.9-7.4,0.9h-11.9c-2.2,0-3.7-0.2-4.5-0.3
		c-1-0.3-2-0.9-3.6-1.7c-1.8-1.2-3.7-2.7-5.2-4.2c-1-1.2-2.7-3.2-5-6.4c2-0.3,3.7-1.2,4.9-2.4c1.2-1.2,1.7-2.4,1.7-3.7
		s-0.5-2.5-1.5-3.6c-1.5-1.5-3.6-2.2-6.3-2.2h-0.5v19c0,1.8,0.5,3.2,1.3,3.7c0.5,0.3,1.8,0.5,3.7,0.9v0.9L-256.8,464.4L-256.8,464.4
		z M-221.8,440.2c-0.3,0-1,0-1.7,0.2v19c0,1.7,0.3,2.9,1.2,3.4c0.7,0.5,1.7,0.7,3.2,0.7c3.4,0,6.1-1.2,7.9-3.7
		c1.5-2,2.4-4.5,2.4-7.6c0-4-1.3-7.1-4-9.2C-215.4,441.1-218.3,440.2-221.8,440.2z"/>
</g>
<g>
	<path class="st0" d="M-282.7,480.5h-4l-0.9,3.2h-2.1l3.8-11.9h2.5l3.8,11.9h-2.2L-282.7,480.5z M-283.2,478.8l-0.4-1.4
		c-0.2-0.6-0.4-1.3-0.6-1.9c-0.2-0.7-0.3-1.3-0.5-2h-0.1c-0.2,0.7-0.3,1.3-0.5,2c-0.2,0.7-0.3,1.3-0.6,1.9l-0.4,1.4H-283.2z"/>
	<path class="st0" d="M-278.1,477.8c0-1,0.1-1.8,0.4-2.6c0.3-0.7,0.7-1.4,1.1-1.9c0.5-0.5,1.1-0.9,1.7-1.2c0.7-0.3,1.4-0.4,2.1-0.4
		c0.7,0,1.4,0.2,1.9,0.5c0.6,0.3,1,0.6,1.4,1l-1.2,1.3c-0.3-0.3-0.6-0.5-1-0.7c-0.3-0.2-0.7-0.3-1.2-0.3c-0.5,0-1,0.1-1.4,0.3
		c-0.4,0.2-0.7,0.5-1,0.9c-0.3,0.3-0.5,0.8-0.7,1.4c-0.2,0.5-0.2,1.1-0.2,1.8c0,1.4,0.3,2.4,0.9,3.2c0.6,0.7,1.4,1.1,2.4,1.1
		c0.5,0,1-0.1,1.4-0.3s0.7-0.5,1.1-0.9l1.2,1.3c-0.5,0.6-1,1-1.7,1.3c-0.6,0.3-1.2,0.5-1.9,0.5c-0.7,0-1.5-0.1-2.1-0.4
		s-1.2-0.7-1.7-1.2c-0.5-0.5-0.9-1.1-1.1-1.9C-278,479.7-278.1,478.8-278.1,477.8z"/>
	<path class="st0" d="M-260.6,480.5h-4l-0.9,3.2h-2.1l3.8-11.9h2.5l3.8,11.9h-2.2L-260.6,480.5z M-261,478.8l-0.4-1.4
		c-0.2-0.6-0.4-1.3-0.6-1.9c-0.2-0.7-0.3-1.3-0.5-2h-0.1c-0.2,0.7-0.3,1.3-0.5,2c-0.2,0.7-0.3,1.3-0.6,1.9l-0.4,1.4H-261z"/>
	<path class="st0" d="M-255.2,471.8h3.2c1.8,0,3.2,0.5,4.2,1.5c1,1,1.5,2.5,1.5,4.4c0,1-0.1,1.8-0.4,2.6c-0.3,0.7-0.6,1.4-1.1,1.9
		c-0.5,0.5-1.1,0.9-1.8,1.1c-0.7,0.2-1.5,0.4-2.4,0.4h-3.3C-255.2,483.8-255.2,471.8-255.2,471.8z M-252.2,482c1.2,0,2.1-0.3,2.8-1
		c0.6-0.7,1-1.8,1-3.3c0-1.4-0.3-2.5-1-3.2c-0.6-0.7-1.6-1-2.8-1h-0.9v8.5L-252.2,482L-252.2,482z"/>
	<path class="st0" d="M-243.5,471.8h7.2v1.8h-5v3h4.2v1.8h-4.2v3.5h5.2v1.8h-7.3V471.8z"/>
	<path class="st0" d="M-233.4,471.8h2.4l2.1,5.8l0.8,2.2h0.1l0.7-2.2l2.1-5.8h2.4v11.9h-2v-5.4c0-0.3,0-0.6,0-0.9
		c0-0.3,0.1-0.6,0.1-1c0-0.3,0.1-0.7,0.1-1c0.1-0.3,0.1-0.6,0.1-0.9h-0.1l-1,2.7l-2.1,5.4h-1l-2.1-5.4l-0.9-2.7h-0.1
		c0,0.3,0.1,0.6,0.1,0.9c0.1,0.3,0.1,0.6,0.1,1c0.1,0.3,0.1,0.7,0.1,1c0,0.3,0,0.6,0,0.9v5.4h-1.9V471.8z"/>
	<path class="st0" d="M-219.5,471.8h2.1v11.9h-2.1V471.8z"/>
	<path class="st0" d="M-214.5,477.8c0-1,0.1-1.8,0.4-2.6c0.3-0.7,0.7-1.4,1.1-1.9c0.5-0.5,1.1-0.9,1.7-1.2c0.7-0.3,1.4-0.4,2.1-0.4
		s1.4,0.2,1.9,0.5s1,0.6,1.4,1l-1.2,1.3c-0.3-0.3-0.6-0.5-1-0.7c-0.3-0.2-0.7-0.3-1.2-0.3c-0.5,0-1,0.1-1.4,0.3
		c-0.4,0.2-0.7,0.5-1,0.9c-0.3,0.3-0.5,0.8-0.7,1.4c-0.2,0.6-0.2,1.1-0.2,1.8c0,1.4,0.3,2.4,0.9,3.2c0.6,0.7,1.4,1.1,2.4,1.1
		c0.5,0,1-0.1,1.4-0.3c0.4-0.2,0.7-0.5,1.1-0.9l1.2,1.3c-0.5,0.6-1,1-1.7,1.3s-1.3,0.5-2.1,0.5c-0.7,0-1.5-0.1-2.1-0.4
		s-1.2-0.7-1.7-1.2c-0.5-0.5-0.9-1.1-1.1-1.9C-214.4,479.7-214.5,478.8-214.5,477.8z"/>
</g>
<rect x="-181.5" y="438.1" class="st1" width="1" height="45.9"/>
<g>
	<path class="st2" d="M-158.3,460c0.5,0.8,1.1,1.5,1.7,1.9s1.3,0.6,2.1,0.6c1.1,0,2.1-0.3,2.6-1.1c0.6-0.7,0.8-1.9,0.8-3.5v-14.9
		h2.8v15.2c0,0.9-0.1,1.8-0.3,2.6c-0.3,0.9-0.6,1.5-1.1,2.1c-0.5,0.6-1.1,1.1-1.8,1.5c-0.7,0.3-1.7,0.5-2.7,0.5
		c-2.7,0-4.6-1.1-5.9-3.4L-158.3,460z"/>
	<path class="st2" d="M-144.5,456.5c0-1.3,0.2-2.5,0.6-3.5c0.4-1.1,1-1.9,1.7-2.6c0.6-0.7,1.5-1.2,2.4-1.7c0.9-0.4,1.8-0.6,2.8-0.6
		c1,0,1.9,0.2,2.8,0.6c0.9,0.4,1.7,0.9,2.4,1.7c0.6,0.7,1.2,1.7,1.7,2.6c0.4,1.1,0.6,2.2,0.6,3.5c0,1.3-0.2,2.5-0.6,3.5
		c-0.4,1.1-1,1.9-1.7,2.6c-0.6,0.7-1.5,1.2-2.4,1.7c-0.9,0.4-1.8,0.6-2.8,0.6c-1,0-1.9-0.2-2.8-0.6c-0.9-0.4-1.7-0.9-2.4-1.7
		c-0.6-0.7-1.2-1.5-1.7-2.6C-144.3,459-144.5,457.8-144.5,456.5z M-141.8,456.5c0,0.9,0.1,1.7,0.3,2.5c0.2,0.7,0.5,1.4,0.9,1.9
		c0.4,0.6,0.9,1,1.5,1.2c0.6,0.3,1.2,0.4,1.9,0.4c0.6,0,1.3-0.2,1.9-0.4c0.6-0.3,1.1-0.7,1.5-1.2c0.4-0.6,0.7-1.1,0.9-1.9
		c0.2-0.7,0.3-1.5,0.3-2.5c0-0.9-0.1-1.7-0.3-2.5c-0.2-0.7-0.5-1.4-0.9-1.9c-0.4-0.6-0.9-1-1.5-1.2c-0.6-0.3-1.2-0.4-1.9-0.4
		c-0.6,0-1.3,0.2-1.9,0.4c-0.6,0.3-1.1,0.7-1.5,1.2c-0.4,0.6-0.7,1.2-0.9,1.9C-141.7,454.7-141.8,455.6-141.8,456.5z"/>
	<path class="st2" d="M-126.3,448.6h2.7v9.7c0,1.5,0.2,2.6,0.7,3.3c0.5,0.6,1.2,1,2.3,1c0.8,0,1.5-0.2,2.2-0.6
		c0.6-0.4,1.3-1.1,2.1-2.1v-11.3h2.7v15.9h-2.3l-0.2-2.5h-0.1c-0.7,0.9-1.5,1.5-2.4,2.1c-0.8,0.5-1.8,0.8-2.9,0.8
		c-1.7,0-2.9-0.5-3.7-1.5c-0.7-1.1-1.1-2.6-1.1-4.6v-10.1H-126.3z"/>
	<path class="st2" d="M-109,448.6h2.2l0.2,2.9h0.1c0.6-1,1.2-1.8,1.9-2.4c0.7-0.6,1.7-0.9,2.5-0.9c0.6,0,1.2,0.1,1.7,0.3l-0.5,2.4
		c-0.2-0.1-0.5-0.2-0.7-0.2c-0.2-0.1-0.5-0.1-0.8-0.1c-0.6,0-1.4,0.2-2.1,0.8c-0.7,0.6-1.4,1.5-1.9,2.9v10.2h-2.7L-109,448.6
		L-109,448.6z"/>
	<path class="st2" d="M-97.7,448.6h2.2l0.2,2.3h0.1c0.7-0.7,1.5-1.4,2.4-1.9s1.8-0.7,2.9-0.7c1.7,0,2.9,0.5,3.7,1.5
		c0.7,1.1,1.1,2.6,1.1,4.6v10.1h-2.6v-9.8c0-1.5-0.2-2.6-0.7-3.3c-0.5-0.6-1.2-1-2.3-1c-0.8,0-1.5,0.2-2.2,0.6s-1.4,1.1-2.1,1.8
		v11.5h-2.7v-15.8H-97.7z"/>
	<path class="st2" d="M-81.3,460.3c0-1.7,0.8-3.1,2.4-4c1.5-0.9,4-1.5,7.5-1.9c0-0.5-0.1-1-0.2-1.5c-0.1-0.5-0.2-0.9-0.5-1.3
		c-0.2-0.4-0.6-0.6-1-0.9c-0.4-0.2-1-0.3-1.7-0.3c-0.9,0-1.8,0.2-2.6,0.5c-0.8,0.3-1.5,0.7-2.1,1.1l-1.1-1.9c0.7-0.5,1.7-1,2.7-1.4
		c1.1-0.4,2.2-0.6,3.5-0.6c1.9,0,3.4,0.6,4.2,1.8c0.9,1.2,1.3,2.8,1.3,4.8v9.7h-2.2l-0.2-1.9h-0.1c-0.7,0.6-1.5,1.1-2.5,1.7
		c-0.9,0.5-1.8,0.6-2.8,0.6c-1.4,0-2.5-0.4-3.4-1.1C-81,462.8-81.3,461.7-81.3,460.3z M-78.7,460.1c0,0.9,0.2,1.5,0.8,1.9
		c0.6,0.4,1.2,0.6,1.9,0.6c0.7,0,1.5-0.2,2.2-0.6c0.6-0.3,1.4-0.9,2.2-1.5v-4.4c-1.3,0.2-2.5,0.4-3.4,0.6c-0.9,0.2-1.7,0.5-2.2,0.8
		c-0.6,0.3-1,0.7-1.2,1.1S-78.7,459.6-78.7,460.1z"/>
	<path class="st2" d="M-64.3,441.1h2.7v20.3c0,0.4,0.1,0.7,0.2,0.9c0.2,0.2,0.3,0.2,0.5,0.2c0.1,0,0.2,0,0.2,0c0.1,0,0.2,0,0.3-0.1
		l0.3,2.1c-0.2,0.1-0.4,0.2-0.6,0.2c-0.2,0.1-0.6,0.1-0.9,0.1c-1.1,0-1.7-0.3-2.2-0.9c-0.5-0.6-0.6-1.5-0.6-2.7L-64.3,441.1
		C-64.4,441.1-64.3,441.1-64.3,441.1z"/>
	<path class="st2" d="M-56.4,460.8c0.7,0.6,1.4,1.1,2.1,1.4c0.7,0.3,1.5,0.5,2.5,0.5c1.1,0,1.8-0.2,2.4-0.7c0.5-0.5,0.8-1.1,0.8-1.8
		c0-0.4-0.1-0.7-0.3-1.1c-0.2-0.3-0.5-0.6-0.8-0.8c-0.3-0.2-0.7-0.4-1.1-0.6s-0.9-0.3-1.3-0.5c-0.6-0.2-1.1-0.4-1.7-0.6
		s-1.1-0.6-1.5-0.9c-0.4-0.3-0.8-0.8-1.1-1.2c-0.2-0.5-0.4-1.1-0.4-1.7c0-0.6,0.2-1.2,0.4-1.8c0.2-0.6,0.6-1.1,1.1-1.5
		s1.1-0.7,1.7-1c0.6-0.2,1.5-0.3,2.3-0.3c1,0,1.9,0.2,2.8,0.5c0.8,0.3,1.5,0.7,2.2,1.3l-1.3,1.7c-0.6-0.4-1.1-0.7-1.7-1
		s-1.2-0.4-1.9-0.4c-1,0-1.7,0.2-2.2,0.6c-0.5,0.5-0.7,1-0.7,1.7c0,0.4,0.1,0.6,0.3,1c0.2,0.2,0.5,0.5,0.8,0.7
		c0.3,0.2,0.7,0.4,1.1,0.6c0.4,0.2,0.9,0.3,1.3,0.5c0.6,0.2,1.1,0.4,1.7,0.6s1.1,0.6,1.5,0.9c0.5,0.3,0.8,0.8,1.1,1.3
		c0.3,0.5,0.4,1.1,0.4,1.9c0,0.6-0.2,1.2-0.4,1.8c-0.2,0.6-0.6,1.1-1.1,1.5c-0.5,0.4-1.1,0.8-1.8,1.1c-0.7,0.2-1.5,0.4-2.5,0.4
		c-1.1,0-2.2-0.2-3.3-0.6c-1.1-0.4-1.9-0.9-2.7-1.5L-56.4,460.8z"/>
</g>
</svg>
