<svg xmlns="http://www.w3.org/2000/svg" width="160" height="30" viewBox="17.5 3.312 160 30"><path fill="#002B5C" d="M41.188 26.331H21.777v-1.192h1.646c.288-3.859 3.988-5.295 6.045-8.416h-2.384c-1.151.41-2.879 2.956-2.879 4.433h-3.002l.041-1.23-.987.821-2.631-3.039s-.123-.165-.123-.287c0-.123.041-.205.041-.205l4.154-5.626.739-2.217 1.111-.411 1.151-1.602-.41-2.792c1.11-.41 2.181-.042 2.715.492.041-.821-.041-1.724-.041-1.724 1.974-.205 2.672.863 3.001 2.053.534.041 1.028.123 1.482.206a.67.67 0 0 1 .617-.453c.37 0 .616.288.616.616v.165c.864.288 1.686.698 2.426 1.149a.586.586 0 0 1 .494-.245c.37 0 .617.287.617.615 0 .166-.041.288-.123.37.698.575 1.275 1.273 1.81 2.012a.762.762 0 0 1 .288-.083c.371 0 .658.287.658.615 0 .246-.123.451-.329.535.411.739.74 1.561.986 2.421.041-.041.123-.041.166-.041.371 0 .616.288.616.616s-.206.575-.453.615c.165.863.288 1.725.371 2.627.371 0 .657.288.657.616 0 .37-.288.615-.616.657 0 .861-.041 1.807-.124 2.711a.661.661 0 0 1 .576.655c0 .329-.289.616-.658.616H40a77.836 77.836 0 0 1-.534 2.75h1.727v1.192h-.005zm-2.96-1.15c2.386-9.813-.411-17.614-8.02-18.518.042.41.042.739.042 1.067 0 .493-.042.904-.042.904l-1.191-.205c.04-.41.122-3.203-.864-3.818 0 0 0 1.479-.328 2.956l-1.111-.206c0-1.026-.453-1.437-1.07-1.725l.288 2.012-.7 1.027.33.943-2.18.739-.617 1.766-3.825 5.255 1.44 1.726 1.604-1.355.37.247v2.012h.864c.371-1.438 1.562-3.121 2.674-3.942l-.617-.739.906-.782.864 1.067s3.084 0 3.084-.041c.452-.984.741-2.176.741-3.571h1.192c0 4.68-2.344 6.529-5.264 9.403-1.07 1.068-2.016 2.216-2.139 3.777l13.569.001zm-17.149-9.074c.041.533-.042 1.354-.329 1.764l-.864-.328c.288-.41.452-.985.452-1.479l.741.043zm4.73-4.558l-1.851.985-.123-1.518 1.933-.206.041.739z"/><path fill="#F58025" d="M41.188 32.406H21.777v-2.382h19.412v2.382z"/><path fill="#002B5C" d="M54.518 26.659c-1.563 0-2.797-.37-3.989-.904-.247-1.066-.33-2.505-.412-3.982l.946-.164c.534 2.012 1.276 3.982 3.742 3.982 1.728 0 2.756-1.067 2.756-2.669 0-4.229-7.032-3.284-7.032-8.171 0-2.218 1.81-4.229 5.017-4.229 1.069 0 2.221.287 3.372.697.082.863.164 1.849.205 3.573l-.863.041c-.411-1.438-1.069-3.202-3.166-3.202-1.562 0-2.344 1.067-2.344 2.34 0 3.899 7.156 3.079 7.156 8.172-.001 2.422-2.18 4.516-5.388 4.516zm11.721-.165c-.658-.042-1.193-.165-1.522-.287v3.859c0 1.396.166 1.52 2.056 1.683v.78h-5.798v-.78c1.482-.164 1.604-.287 1.604-1.683V19.105c0-1.438-.041-1.479-1.438-1.603v-.697c1.232-.246 2.385-.616 3.577-1.027v1.56l2.221-1.149c.288-.165.576-.205.864-.205 2.551 0 3.99 2.215 3.99 4.352-.001 3.448-2.469 5.789-5.554 6.158zm.535-8.992c-.658 0-1.521.453-2.056.78v6.077c.453.493 1.193.862 2.098.862 1.193 0 2.755-.903 2.755-3.982-.001-2.587-1.236-3.737-2.797-3.737zm12.831 1.028c-.247-.329-.576-.41-.987-.41-.534 0-1.193.616-1.646 1.889v3.819c0 1.395.166 1.52 1.933 1.643v.821h-5.593v-.822c1.399-.123 1.562-.247 1.562-1.643v-4.641c0-1.396-.123-1.396-1.398-1.643v-.697c1.234-.247 2.427-.494 3.496-.904v2.463h.041c.741-1.355 1.769-2.422 2.714-2.422.823 0 1.399.615 1.399 1.273 0 .944-.986 1.767-1.521 1.274zm7.856 7.759h-5.264v-.821c1.397-.123 1.604-.247 1.604-1.724v-4.436c0-1.601-.123-1.601-1.481-1.765v-.698c1.275-.247 2.549-.535 3.577-.904v7.801c0 1.478.124 1.601 1.563 1.724l.001.823zm-2.715-12.523a1.385 1.385 0 0 1-1.398-1.396c0-.822.617-1.437 1.398-1.437.823 0 1.439.615 1.439 1.437.001.781-.617 1.396-1.439 1.396zm15.299 12.523h-4.854v-.821c1.151-.123 1.316-.247 1.316-1.561v-4.023c0-1.479-.659-2.383-1.893-2.383-.781 0-1.685.575-2.303 1.149v5.257c0 1.313.123 1.437 1.274 1.56v.821H88.57v-.821c1.397-.123 1.603-.246 1.603-1.56v-4.722c0-1.397-.081-1.479-1.316-1.644v-.698c1.235-.247 2.386-.494 3.455-.904v1.644c.534-.452 2.098-1.603 3.29-1.603 1.851 0 3.003 1.274 3.003 3.161v4.762c0 1.314.203 1.438 1.438 1.562v.823h.002zm11.721-9.771c-.165.369-.616 1.067-.985 1.272l-1.194-.122c.328.451.575 1.356.575 2.053 0 2.505-2.261 3.86-4.317 3.86-.124 0-.453-.041-.741-.041-.493.164-.905.739-.905 1.108s.37.821 1.357.821h2.467c1.439 0 3.372.698 3.372 2.997 0 2.628-2.755 4.845-5.963 4.845-2.797 0-4.278-1.725-4.278-3.12 0-.904.454-1.603 2.386-3.079-.699-.247-1.932-.944-1.851-2.26.946-.41 1.811-1.148 2.18-1.602-1.11-.37-2.138-1.683-2.138-3.161 0-2.668 2.385-4.105 4.359-4.105.863 0 1.686.205 2.386.575 1.067-.041 2.138-.165 3.125-.288l.165.247zm-3.248 11.003c-.575-.206-1.356-.246-2.632-.246-1.768 0-2.551 1.313-2.551 2.3 0 1.396 1.234 2.463 3.085 2.463 2.057 0 3.207-1.354 3.207-2.71 0-.862-.492-1.559-1.109-1.807zm-2.632-10.552c-.863 0-1.851.903-1.851 2.627s.905 2.957 2.138 2.957c.905 0 1.769-.78 1.769-2.669.001-1.602-.782-2.915-2.056-2.915zm14.517 3.613c-.37.041-3.208.245-5.798.328.081 2.709 1.685 3.859 3.289 3.859.904 0 1.562-.246 2.386-1.066l.536.738c-1.358 1.684-2.962 2.093-3.704 2.093-2.92 0-4.605-2.218-4.605-4.845 0-3.203 2.428-5.708 4.854-5.708 2.017 0 3.62 1.725 3.62 3.655-.003.617-.127.863-.578.946zm-3.496-3.572c-.945 0-1.934 1.027-2.18 2.792l3.536-.082c.453 0 .535-.124.535-.534.001-1.109-.78-2.176-1.891-2.176zm11.844 1.52a1.401 1.401 0 0 0-.987-.41c-.535 0-1.234.616-1.686 1.889v3.819c0 1.395.165 1.52 1.933 1.643v.821h-5.636v-.822c1.439-.123 1.565-.247 1.565-1.643v-4.641c0-1.396-.082-1.396-1.4-1.643v-.697c1.318-.247 2.469-.494 3.538-.904v2.463h.041c.699-1.355 1.726-2.422 2.715-2.422.78 0 1.398.615 1.398 1.273.001.944-1.029 1.767-1.481 1.274zm5.358.616c0-4.969 2.756-7.638 6.21-7.638 3.412 0 6.003 2.627 6.003 7.391 0 5.215-2.962 7.638-6.209 7.638-3.331-.001-6.004-2.588-6.004-7.391zm1.112 0c0 3.079 1.645 6.486 4.934 6.486h.043c3.332 0 4.936-3.326 4.936-6.692 0-2.956-1.441-6.528-4.936-6.528-3.499-.001-4.977 3.448-4.977 6.734zm14.926 5.706v5.502h-1.149V19.39c0-1.396-.043-2.34-.084-3.202h1.069l.083 1.684c.781-1.312 1.975-1.888 3.455-1.888 2.468 0 4.236 1.971 4.236 5.132 0 3.654-2.138 5.38-4.483 5.38-1.357-.002-2.508-.618-3.127-1.644zm.083-5.462c-.041.289-.083.575-.083.863v2.136c0 .245 0 .533.083.78.412 1.643 1.688 2.422 3.003 2.422 2.221 0 3.373-1.889 3.373-4.435 0-2.217-1.111-4.311-3.332-4.311-1.357.001-2.673 1.109-3.044 2.545zm10.326 1.685c.04 3.407 1.768 4.476 3.703 4.476 1.274 0 2.015-.246 2.631-.576l.247.863c-.494.288-1.521.615-3.044.615-2.922 0-4.648-2.134-4.648-5.049 0-3.327 1.851-5.419 4.443-5.419 3.166 0 3.781 2.916 3.781 4.433 0 .247 0 .452-.04.658l-7.073-.001zm.082-.863h5.88c0-1.683-.781-3.366-2.796-3.366-1.975 0-2.921 1.806-3.084 3.366zm15.752 6.077v-6.118c0-1.725-.616-3.243-2.592-3.243a2.897 2.897 0 0 0-2.795 2.177 2.999 2.999 0 0 0-.122.903v6.282h-1.152v-7.679c0-.985-.043-1.561-.084-2.422h1.07l.04 1.601c.577-1.026 1.811-1.806 3.292-1.806 1.15 0 3.454.575 3.454 3.982v6.323h-1.111z"/></svg>